# xmcd
#
# Track frame offsets:
#	150
#	11211
#	23097
#	36766
#	50247
#	57322
#	68554
#	83010
#	95700
#	108719
#	123050
#	133383
#	151257
#	159564
#
# Disc length: 2268 seconds
#
# Revision: 0
# Processed by: cddbd v1.4PL0 Copyright (c) Steve Scherf et al.
# Submitted via: dBpowerAMP V4.0
#
DISCID=bc08da0e
DTITLE=The Hunger Mountain Boys - Fashioned In The Old Way
DYEAR=2003
DGENRE=Bluegrass
TTITLE0=Coming From The Ball
TTITLE1=Kiss Me Quick And Go
TTITLE2=Nashville Don't Touch My Country Music
TTITLE3=My Darlin' My Dear
TTITLE4=First Day Of Spring
TTITLE5=Upon My Cabin Door
TTITLE6=I Don't Want Your Ramblin' Letters
TTITLE7=Gotta Get Saved
TTITLE8=Cryin' Weepin' Pinin'
TTITLE9=Sparkling Blue Eyes
TTITLE10=Over The Long Tiresome Hill
TTITLE11=It's Never Too Late
TTITLE12=Talie's Blues
TTITLE13=You're Gonna Miss Me When I'm Gone
EXTD=
EXTT0=
EXTT1=
EXTT2=
EXTT3=
EXTT4=
EXTT5=
EXTT6=
EXTT7=
EXTT8=
EXTT9=
EXTT10=
EXTT11=
EXTT12=
EXTT13=
PLAYORDER=
